# Blender 4.0.2
# www.blender.org
mtllib piedrita.mtl
o frosty_priedita
v 0.005542 0.003915 0.071372
v -0.004199 0.002849 -0.051698
v 0.054235 0.003439 0.049743
v 0.000700 0.001426 0.008995
v -0.046004 0.004079 0.056955
v 0.047346 0.002685 -0.037281
v -0.052892 0.003325 -0.030068
v 0.071551 0.002930 0.004737
v -0.070208 0.003834 0.014937
v 0.007407 0.022382 0.049112
v -0.003266 0.014313 -0.049870
v 0.037188 0.022097 0.035877
v 0.005339 0.023977 0.011257
v -0.024123 0.022483 0.040299
v 0.032962 0.021653 -0.017350
v -0.028349 0.022040 -0.012928
v 0.047773 0.021795 0.008348
v -0.067761 0.015272 0.015221
v 0.053806 0.014884 0.049237
v 0.006234 0.015348 0.070362
v -0.044121 0.015508 0.056272
v 0.001432 0.021755 -0.026163
v 0.047089 0.014153 -0.035780
v -0.050838 0.014777 -0.028744
v 0.070729 0.014389 0.005272
v -0.038934 0.022342 0.014601
v 0.032296 0.003702 0.064736
v -0.002934 0.000954 -0.036127
v 0.004296 0.001742 0.054926
v -0.021953 0.004048 0.068640
v 0.023296 0.002717 -0.048965
v -0.030953 0.003063 -0.045062
v 0.064291 0.002760 -0.018423
v 0.053121 0.001014 0.005617
v 0.068019 0.003168 0.028674
v -0.051759 0.001683 0.013182
v -0.066676 0.003596 -0.009000
v -0.062948 0.004004 0.038097
v 0.032336 0.015139 0.063821
v 0.003381 0.023317 -0.010414
v 0.006986 0.023674 0.033392
v -0.020601 0.015477 0.067624
v 0.023569 0.014184 -0.047131
v -0.029368 0.014522 -0.043328
v 0.063569 0.014225 -0.017323
v 0.030414 0.023336 0.009614
v 0.067200 0.014621 0.028634
v -0.020047 0.023656 0.013364
v -0.064232 0.015040 -0.008142
v -0.060601 0.015436 0.037816
v -0.053260 0.008358 -0.030298
v -0.004119 0.007878 -0.052120
v 0.005695 0.008952 0.072075
v -0.046319 0.009117 0.057521
v -0.070739 0.008871 0.015117
v 0.072315 0.007959 0.004838
v 0.054835 0.008472 0.050253
v 0.047895 0.007712 -0.037566
v 0.023770 0.022253 0.045050
v -0.009411 0.022463 0.047443
v 0.018250 0.021674 -0.024494
v -0.014931 0.021883 -0.022101
v 0.043329 0.021696 -0.005817
v 0.045616 0.021936 0.022989
v -0.036777 0.022201 -0.000040
v -0.034490 0.022441 0.028766
v 0.045609 0.019546 0.042666
v 0.006872 0.019921 0.059871
v -0.034132 0.020054 0.048400
v -0.000871 0.019092 -0.038032
v 0.040133 0.018960 -0.026562
v -0.039607 0.019467 -0.020828
v 0.059386 0.019148 0.006865
v -0.053384 0.019865 0.014973
v 0.035206 0.000833 -0.025467
v 0.040318 0.001390 0.038917
v -0.033844 0.001863 0.044267
v -0.038956 0.001306 -0.020118
v 0.021749 0.023257 -0.005325
v 0.024299 0.023509 0.025651
v -0.011382 0.023735 0.028303
v -0.013932 0.023483 -0.002673
v -0.031118 0.008093 -0.045427
v -0.022051 0.009086 0.069315
v -0.067173 0.008631 -0.009038
v 0.068748 0.008199 0.028993
v 0.064993 0.007788 -0.018535
v 0.023626 0.007744 -0.049360
v -0.063417 0.009042 0.038489
v 0.032694 0.008737 0.065381
v 0.028155 0.019753 0.054593
v -0.015000 0.020027 0.057696
v 0.021001 0.018986 -0.035858
v -0.022154 0.019261 -0.032754
v 0.053612 0.019016 -0.011559
v 0.056575 0.019334 0.025906
v -0.050574 0.019679 -0.004068
v -0.047611 0.019997 0.033398
vn 0.0848 -0.9959 -0.0329
vn -0.0067 -0.9999 0.0105
vn 0.0170 -0.9946 -0.1019
vn 0.0664 -0.9939 -0.0877
vn 0.0761 -0.9930 0.0901
vn 0.0309 -0.9934 0.1104
vn -0.0069 -0.9999 0.0079
vn 0.0884 -0.9954 0.0359
vn -0.0273 -0.9930 0.1148
vn -0.0747 -0.9920 0.1017
vn -0.0944 -0.9943 0.0502
vn -0.0047 -1.0000 0.0078
vn -0.0045 -0.9999 0.0103
vn -0.1007 -0.9948 -0.0181
vn -0.0904 -0.9931 -0.0749
vn -0.0439 -0.9943 -0.0969
vn 0.0775 0.9961 -0.0410
vn 0.0578 0.9952 -0.0788
vn 0.0219 0.9954 -0.0931
vn 0.0182 0.9995 -0.0254
vn 0.0675 0.9963 0.0525
vn 0.0815 0.9966 0.0118
vn 0.0203 0.9998 0.0058
vn 0.0341 0.9968 0.0724
vn -0.0102 0.9972 0.0741
vn -0.0065 0.9999 0.0078
vn -0.0611 0.9979 0.0214
vn -0.0438 0.9974 0.0576
vn -0.0090 0.9997 -0.0231
vn -0.0220 0.9959 -0.0877
vn -0.0525 0.9964 -0.0663
vn -0.0646 0.9975 -0.0276
vn -0.2405 -0.0778 -0.9675
vn -0.5631 -0.0784 -0.8227
vn -0.5165 0.3851 -0.7648
vn -0.2237 0.3525 -0.9087
vn -0.4336 -0.1277 0.8920
vn -0.0987 -0.1343 0.9860
vn -0.0952 0.2698 0.9582
vn -0.4134 0.3145 0.8545
vn -0.8342 -0.0861 -0.5447
vn -0.9846 -0.0985 -0.1443
vn -0.8950 0.4243 -0.1379
vn -0.7602 0.4135 -0.5012
vn 0.8259 -0.1538 0.5424
vn 0.9777 -0.1513 0.1458
vn 0.9620 0.2338 0.1413
vn 0.8181 0.2212 0.5308
vn 0.9454 -0.1382 -0.2952
vn 0.7389 -0.1181 -0.6634
vn 0.7159 0.2735 -0.6423
vn 0.9222 0.2531 -0.2924
vn 0.4348 -0.0987 -0.8951
vn 0.0982 -0.0846 -0.9916
vn 0.0964 0.3217 -0.9419
vn 0.4167 0.2959 -0.8595
vn -0.9481 -0.1110 0.2979
vn -0.7382 -0.1206 0.6637
vn -0.6941 0.3655 0.6202
vn -0.8720 0.4070 0.2718
vn 0.2372 -0.1416 0.9611
vn 0.5567 -0.1490 0.8173
vn 0.5509 0.2214 0.8047
vn 0.2367 0.2376 0.9421
vn 0.1412 0.9716 0.1898
vn 0.0636 0.9722 0.2255
vn 0.1080 0.9084 0.4038
vn 0.2437 0.9076 0.3419
vn -0.0174 0.9749 0.2221
vn -0.0883 0.9789 0.1845
vn -0.1605 0.9288 0.3341
vn -0.0358 0.9164 0.3986
vn 0.0269 0.9742 -0.2239
vn 0.1013 0.9734 -0.2057
vn 0.1716 0.9202 -0.3518
vn 0.0430 0.9230 -0.3823
vn -0.1047 0.9798 -0.1701
vn -0.0445 0.9766 -0.2104
vn -0.0823 0.9295 -0.3595
vn -0.1874 0.9381 -0.2915
vn 0.1676 0.9737 -0.1542
vn 0.2127 0.9743 -0.0736
vn 0.3702 0.9207 -0.1234
vn 0.2895 0.9204 -0.2628
vn 0.2250 0.9741 0.0237
vn 0.1994 0.9728 0.1182
vn 0.3481 0.9124 0.2153
vn 0.3933 0.9181 0.0497
vn -0.1698 0.9849 -0.0346
vn -0.1479 0.9830 -0.1091
vn -0.2655 0.9462 -0.1851
vn -0.3056 0.9506 -0.0550
vn -0.1399 0.9826 0.1220
vn -0.1675 0.9848 0.0455
vn -0.3024 0.9491 0.0885
vn -0.2535 0.9412 0.2234
vt 0.776856 0.523626
vt 0.774320 0.522984
vt 0.773289 0.517105
vt 0.776856 0.519485
vt 0.767583 0.521490
vt 0.768901 0.513833
vt 0.769534 0.511256
vt 0.772894 0.512790
vt 0.775465 0.515680
vt 0.772894 0.530438
vt 0.769534 0.532073
vt 0.771389 0.528025
vt 0.775465 0.527472
vt 0.765898 0.532127
vt 0.766213 0.529275
vt 0.762539 0.530592
vt 0.761825 0.526003
vt 0.759968 0.527702
vt 0.758576 0.523898
vt 0.758576 0.519757
vt 0.760794 0.520124
vt 0.763725 0.515083
vt 0.759968 0.515911
vt 0.762539 0.512944
vt 0.765898 0.511310
vt 0.327660 0.605922
vt 0.327734 0.603320
vt 0.330585 0.602365
vt 0.330011 0.605293
vt 0.328636 0.600890
vt 0.330229 0.599001
vt 0.254513 0.760991
vt 0.253990 0.757598
vt 0.256014 0.756108
vt 0.256540 0.758831
vt 0.254259 0.764052
vt 0.257470 0.762508
vt 0.254990 0.768805
vt 0.253207 0.767316
vt 0.255928 0.766221
vt 0.257193 0.769327
vt 0.328425 0.608299
vt 0.331317 0.607724
vt 0.258541 0.766227
vt 0.259480 0.768802
vt 0.260568 0.764067
vt 0.261504 0.767312
vt 0.260821 0.761006
vt 0.263379 0.759822
vt 0.263614 0.762452
vt 0.262955 0.765082
vt 0.259153 0.758837
vt 0.258301 0.755583
vt 0.260504 0.756105
vt 0.262287 0.757594
vt 0.328042 0.470261
vt 0.327892 0.466038
vt 0.328698 0.465957
vt 0.328849 0.470219
vt 0.327616 0.462948
vt 0.328419 0.462839
vt 0.329418 0.463256
vt 0.329687 0.466283
vt 0.329834 0.470401
vt 0.329763 0.443962
vt 0.329936 0.448466
vt 0.329150 0.448439
vt 0.328975 0.443894
vt 0.329935 0.453179
vt 0.329149 0.453195
vt 0.328098 0.453167
vt 0.328097 0.448564
vt 0.327929 0.444163
vt 0.333760 0.416787
vt 0.333265 0.420460
vt 0.332462 0.420426
vt 0.332961 0.416719
vt 0.333265 0.424552
vt 0.332462 0.424555
vt 0.266669 0.753768
vt 0.268471 0.757444
vt 0.267604 0.757751
vt 0.265851 0.754201
vt 0.263727 0.751313
vt 0.263011 0.751815
vt 0.775985 0.527714
vt 0.773390 0.530707
vt 0.777390 0.523833
vt 0.324385 0.610770
vt 0.323120 0.606849
vt 0.323971 0.606667
vt 0.325204 0.610457
vt 0.326842 0.613723
vt 0.327574 0.613323
vt 0.777390 0.519654
vt 0.327616 0.483034
vt 0.327892 0.479459
vt 0.328698 0.479501
vt 0.328419 0.483108
vt 0.329688 0.479386
vt 0.329417 0.482868
vt 0.323240 0.602556
vt 0.324097 0.602514
vt 0.328042 0.474974
vt 0.328849 0.474975
vt 0.329833 0.475003
vt 0.333760 0.428439
vt 0.332960 0.428477
vt 0.329443 0.440352
vt 0.328652 0.440252
vt 0.327616 0.440647
vt 0.268858 0.761782
vt 0.267969 0.761950
vt 0.329762 0.457383
vt 0.328974 0.457438
vt 0.329442 0.460438
vt 0.328651 0.460522
vt 0.327616 0.460259
vt 0.327928 0.457265
vt 0.329914 0.610090
vt 0.331899 0.611021
vt 0.331421 0.612911
vt 0.328839 0.611700
vt 0.260349 0.770487
vt 0.257374 0.771169
vt 0.261379 0.772096
vt 0.257727 0.772922
vt 0.330748 0.614797
vt 0.262980 0.768547
vt 0.264867 0.765646
vt 0.266928 0.766151
vt 0.264604 0.769705
vt 0.253207 0.755917
vt 0.255838 0.753978
vt 0.327173 0.599736
vt 0.329244 0.597279
vt 0.325526 0.598630
vt 0.328075 0.595622
vt 0.331899 0.595899
vt 0.331330 0.593919
vt 0.258812 0.753295
vt 0.261678 0.753973
vt 0.255840 0.751822
vt 0.259491 0.750996
vt 0.326000 0.602897
vt 0.325905 0.606280
vt 0.326902 0.609372
vt 0.263997 0.755908
vt 0.265418 0.758806
vt 0.265723 0.762226
s 0
usemtl Material.002
f 8/1/1 34/2/1 75/3/1 33/4/1
f 34/2/2 4/5/2 28/6/2 75/3/2
f 75/3/3 28/6/3 2/7/3 31/8/3
f 33/4/4 75/3/4 31/8/4 6/9/4
f 3/10/5 27/11/5 76/12/5 35/13/5
f 27/11/6 1/14/6 29/15/6 76/12/6
f 76/12/7 29/15/7 4/5/7 34/2/7
f 35/13/8 76/12/8 34/2/8 8/1/8
f 1/14/9 30/16/9 77/17/9 29/15/9
f 30/16/10 5/18/10 38/19/10 77/17/10
f 77/17/11 38/19/11 9/20/11 36/21/11
f 29/15/12 77/17/12 36/21/12 4/5/12
f 4/5/13 36/21/13 78/22/13 28/6/13
f 36/21/14 9/20/14 37/23/14 78/22/14
f 78/22/15 37/23/15 7/24/15 32/25/15
f 28/6/16 78/22/16 32/25/16 2/7/16
f 17/26/17 63/27/17 79/28/17 46/29/17
f 63/27/18 15/30/18 61/31/18 79/28/18
f 79/32/19 61/33/19 22/34/19 40/35/19
f 46/36/20 79/32/20 40/35/20 13/37/20
f 12/38/21 64/39/21 80/40/21 59/41/21
f 64/42/22 17/26/22 46/29/22 80/43/22
f 80/40/23 46/36/23 13/37/23 41/44/23
f 59/41/24 80/40/24 41/44/24 10/45/24
f 10/45/25 41/44/25 81/46/25 60/47/25
f 41/44/26 13/37/26 48/48/26 81/46/26
f 81/46/27 48/48/27 26/49/27 66/50/27
f 60/47/28 81/46/28 66/50/28 14/51/28
f 13/37/29 40/35/29 82/52/29 48/48/29
f 40/35/30 22/34/30 62/53/30 82/52/30
f 82/52/31 62/53/31 16/54/31 65/55/31
f 48/48/32 82/52/32 65/55/32 26/49/32
f 2/56/33 32/57/33 83/58/33 52/59/33
f 32/57/34 7/60/34 51/61/34 83/58/34
f 83/58/35 51/61/35 24/62/35 44/63/35
f 52/59/36 83/58/36 44/63/36 11/64/36
f 5/65/37 30/66/37 84/67/37 54/68/37
f 30/66/38 1/69/38 53/70/38 84/67/38
f 84/67/39 53/70/39 20/71/39 42/72/39
f 54/68/40 84/67/40 42/72/40 21/73/40
f 7/74/41 37/75/41 85/76/41 51/77/41
f 37/75/42 9/78/42 55/79/42 85/76/42
f 85/80/43 55/81/43 18/82/43 49/83/43
f 51/84/44 85/80/44 49/83/44 24/85/44
f 3/10/45 35/13/45 86/86/45 57/87/45
f 35/13/46 8/1/46 56/88/46 86/86/46
f 86/89/47 56/90/47 25/91/47 47/92/47
f 57/93/48 86/89/48 47/92/48 19/94/48
f 8/1/49 33/4/49 87/95/49 56/88/49
f 33/96/50 6/97/50 58/98/50 87/99/50
f 87/99/51 58/98/51 23/100/51 45/101/51
f 56/90/52 87/102/52 45/103/52 25/91/52
f 6/97/53 31/104/53 88/105/53 58/98/53
f 31/104/54 2/56/54 52/59/54 88/105/54
f 88/105/55 52/59/55 11/64/55 43/106/55
f 58/98/56 88/105/56 43/106/56 23/100/56
f 9/78/57 38/107/57 89/108/57 55/79/57
f 38/109/58 5/65/58 54/68/58 89/110/58
f 89/110/59 54/68/59 21/73/59 50/111/59
f 55/81/60 89/112/60 50/113/60 18/82/60
f 1/69/61 27/114/61 90/115/61 53/70/61
f 27/114/62 3/116/62 57/117/62 90/115/62
f 90/115/63 57/117/63 19/118/63 39/119/63
f 53/70/64 90/115/64 39/119/64 20/71/64
f 12/120/65 59/121/65 91/122/65 67/123/65
f 59/41/66 10/45/66 68/124/66 91/125/66
f 91/125/67 68/124/67 20/126/67 39/127/67
f 67/123/68 91/122/68 39/128/68 19/94/68
f 10/45/69 60/47/69 92/129/69 68/124/69
f 60/47/70 14/51/70 69/130/70 92/129/70
f 92/129/71 69/130/71 21/131/71 42/132/71
f 68/124/72 92/129/72 42/132/72 20/126/72
f 22/34/73 61/33/73 93/133/73 70/134/73
f 61/31/74 15/30/74 71/135/74 93/136/74
f 93/136/75 71/135/75 23/137/75 43/138/75
f 70/139/76 93/136/76 43/138/76 11/140/76
f 16/54/77 62/53/77 94/141/77 72/142/77
f 62/53/78 22/34/78 70/134/78 94/141/78
f 94/141/79 70/134/79 11/143/79 44/144/79
f 72/142/80 94/141/80 44/144/80 24/85/80
f 15/30/81 63/27/81 95/145/81 71/135/81
f 63/27/82 17/26/82 73/146/82 95/145/82
f 95/145/83 73/146/83 25/91/83 45/103/83
f 71/135/84 95/145/84 45/103/84 23/137/84
f 17/26/85 64/42/85 96/147/85 73/146/85
f 64/42/86 12/120/86 67/123/86 96/147/86
f 96/147/87 67/123/87 19/94/87 47/92/87
f 73/146/88 96/147/88 47/92/88 25/91/88
f 26/49/89 65/55/89 97/148/89 74/149/89
f 65/55/90 16/54/90 72/142/90 97/148/90
f 97/148/91 72/142/91 24/85/91 49/83/91
f 74/149/92 97/148/92 49/83/92 18/82/92
f 14/51/93 66/50/93 98/150/93 69/130/93
f 66/50/94 26/49/94 74/149/94 98/150/94
f 98/150/95 74/149/95 18/82/95 50/113/95
f 69/130/96 98/150/96 50/113/96 21/131/96
